<svg width="160" height="51" viewBox="0 0 160 51" fill="none" xmlns="http://www.w3.org/2000/svg">
<g clip-path="url(#clip0_3032_20613)">
<path d="M112.217 4.33786C112.217 4.33786 109.236 5.52735 105.77 9.35756C102.303 13.1878 100.284 17.4948 101.778 18.6402C102.352 19.0756 103.676 19.1585 106.077 16.9817C108.294 15.0526 110.033 12.6345 111.16 9.91731C112.711 6.12598 112.217 4.38451 112.217 4.34304V4.33786ZM131.188 11.2286C127.337 9.24871 124.522 6.82309 121.593 5.32262C118.798 3.88435 116.991 3.28313 114.732 3.58633C114.417 3.64265 114.106 3.72058 113.801 3.81956C113.801 3.81956 114.965 7.80267 110.335 14.4939C105.646 21.2784 101.391 21.2317 100.181 19.3684C98.9142 17.4015 100.551 13.3925 103.283 9.82402C106.145 6.09229 111.17 2.99806 111.17 2.99806C111.17 2.99806 109.567 2.01589 105.633 4.25234C101.794 6.424 95.1866 11.607 89.0549 20.348C82.9233 29.0891 81.7083 33.8989 80.8294 37.685C79.9505 41.4712 80.7492 45.5268 84.937 45.5268C89.1247 45.5268 94.0001 39.1233 95.3753 36.8972C97.9319 32.7508 99.5993 26.3913 96.1198 27.2647C94.406 27.6949 93.0178 29.597 92.1415 31.4292C91.5882 32.606 91.1652 33.84 90.88 35.1091C89.6641 35.6114 88.5223 36.2775 87.4858 37.089C86.3329 37.9451 85.2553 38.8988 84.2649 39.9396C84.2649 39.9396 84.2804 36.9128 86.6871 32.0149C89.0937 27.117 93.5115 24.8805 96.0138 24.6706C98.268 24.4892 101.202 26.4069 98.7152 33.4816C96.2284 40.5564 88.8921 49.1575 81.1861 49.2637C74.0747 49.3622 69.4216 40.2635 79.3197 24.3855C90.2751 6.84382 103.125 1.46132 107.298 0.862685C111.47 0.264054 112.827 2.10919 112.827 2.10919C115.338 1.07624 118.051 0.627891 120.76 0.797898C125.855 1.14257 129.795 4.75768 134.996 7.29733C133.644 8.59307 132.354 9.9536 131.191 11.2286H131.188ZM154.079 5.32262C150.548 7.59276 145.662 9.65039 140.968 9.20984C139.778 10.4408 138.507 11.8661 137.232 13.421C145.372 15.0355 152.505 9.97951 156.297 5.67506C157.679 4.12746 158.867 2.41549 159.833 0.577623C158.107 2.38038 156.174 3.97301 154.076 5.32262H154.079ZM143.237 28.3142C143.299 28.2066 143.349 28.0928 143.387 27.9747C143.363 27.7879 143.276 27.6149 143.14 27.4848C143.004 27.3546 142.827 27.2751 142.64 27.2595C141.865 27.2232 140.807 27.3709 138.034 30.4496C135.732 32.992 133.752 35.8085 132.137 38.8356C130.55 41.7433 129.906 43.9098 130.819 44.4695C131.115 44.6235 131.459 44.6587 131.78 44.568C132.398 44.4203 133.099 43.8398 134.164 42.6036C134.663 42.0232 135.216 41.2017 135.878 40.292C137.713 37.7887 142.325 29.908 143.237 28.3142ZM114.424 31.6624C114.887 30.4496 115.477 28.068 114.251 27.1325C112.935 26.14 109.58 28.4697 109.562 30.8591C109.539 33.3054 111.925 34.412 112.496 34.5675C112.822 34.6556 112.935 34.6426 113.093 34.3809C113.599 33.5067 114.044 32.5984 114.424 31.6624ZM111.886 36.112C111.054 35.7271 110.279 35.2311 109.58 34.6374C108.879 34.0483 108.294 33.3339 107.853 32.5306C107.807 32.4528 107.76 32.5124 107.709 32.5824C107.657 32.6524 107.45 32.8415 105.661 35.4693C103.872 38.0971 101.124 43.5418 103.611 44.4695C105.204 45.063 107.853 42.2668 109.298 40.4138C110.283 39.1205 111.175 37.7592 111.969 36.34C112.044 36.182 111.969 36.1457 111.889 36.112H111.886ZM140.096 42.4015C139.422 43.4847 138.651 45.5631 140.872 44.27C143.589 42.6969 147.459 36.8117 147.459 36.8117H149.214C147.617 39.2735 145.838 41.6124 143.894 43.8087C141.141 46.8666 137.783 49.6447 135.417 49.37C132.654 49.0461 133.52 45.4102 133.52 45.4102C133.52 45.4102 129.568 49.6291 126.833 49.3259C123.139 48.9165 124.266 44.3399 124.266 44.3399C124.266 44.3399 120.088 49.4788 117.242 49.3208C112.78 49.0616 113.902 43.6195 115.143 39.7867C115.807 37.7369 116.423 36.1275 116.423 36.1275C116.423 36.1275 115.981 36.2442 115.029 36.3867C114.533 36.4567 113.628 36.5085 113.628 36.5085C113.628 36.5085 111.77 39.7945 110.283 41.7692C108.797 43.7439 102.479 50.5517 98.7617 49.1886C95.3236 47.9291 96.4611 42.6529 98.4619 38.4599C101.383 32.3466 109.598 23.564 114.337 24.725C119.248 25.9197 114.448 34.9044 114.448 34.9044C114.448 34.9044 114.448 34.938 114.499 34.9614C114.598 34.9977 114.854 35.0262 115.446 34.9095C116.059 34.7841 116.66 34.6046 117.242 34.3731C117.242 34.3731 122.18 24.0072 127.634 17.2253C133.088 10.4434 143.969 -1.23641 148.239 1.5883C149.273 2.28282 148.808 4.67475 147.402 7.57721C146.768 7.78346 146.125 7.95646 145.473 8.0955C146.414 6.38254 147.037 4.93908 147.223 3.931C147.867 0.427317 139.706 7.81822 133.874 15.7585C130.361 20.5454 127.241 25.6092 124.542 30.9005C125.596 30.2564 126.601 29.5367 127.551 28.747C130.152 26.5847 132.625 24.2708 134.955 21.8174C137.199 19.5146 139.303 17.0794 141.257 14.525C141.878 14.4949 142.497 14.4308 143.111 14.3332C140.98 17.2321 138.657 19.9836 136.157 22.5689C133.83 24.9272 131.312 27.4642 129.125 29.3068C127.172 30.972 125.112 32.5069 122.958 33.9015C122.958 33.9015 117.857 44.213 120.631 44.8738C122.262 45.2677 125.483 40.2946 125.483 40.2946C125.483 40.2946 129.686 33.8652 132.22 30.9653C135.676 27.0263 138.651 24.7458 141.624 24.7043C143.356 24.6732 144.377 26.5183 144.377 26.5183L145.191 25.2537H150.206C150.206 25.2537 140.841 41.1861 140.091 42.386L140.096 42.4015ZM154.076 5.32262C150.545 7.59276 145.659 9.65039 140.965 9.20984C139.776 10.4408 138.504 11.8661 137.23 13.421C145.37 15.0355 152.502 9.97951 156.294 5.67506C157.678 4.1276 158.866 2.41563 159.833 0.577623C158.107 2.38038 156.174 3.97301 154.076 5.32262ZM83.6471 13.1385H78.8777L76.1815 17.5052H80.9509L83.6471 13.1385ZM61.0642 28.2598C63.0935 25.4714 68.6927 15.6989 68.6927 15.6989C68.6691 15.5122 68.5822 15.3394 68.4467 15.2092C68.3112 15.079 68.1352 14.9994 67.9482 14.9837C67.1727 14.9474 65.8802 15.2091 63.3132 18.4303C60.7463 21.6515 58.7532 24.2145 57.3004 26.8811C55.7081 29.7914 55.0127 31.8438 55.9278 32.401C56.2248 32.5501 56.5659 32.5852 56.8868 32.4995C57.4814 32.3492 58.2595 31.7505 59.3271 30.5196C59.8286 29.9443 60.3973 29.1694 61.0642 28.2598ZM35.4725 15.0433C34.1541 14.0455 30.8013 16.3805 30.7832 18.7646C30.7625 21.2136 33.7999 21.9625 34.1929 21.9806C34.3084 21.9903 34.4243 21.966 34.5263 21.9107C34.5964 21.8697 34.6523 21.8082 34.6866 21.7345C35.0437 21.0309 35.3647 20.3096 35.6482 19.5732C36.111 18.3604 36.6978 15.9788 35.4725 15.0433ZM33.4846 23.4733C32.5755 23.1886 31.7067 22.788 30.8995 22.2813C30.1173 21.7701 29.4813 21.0636 29.0538 20.2314C29.0073 20.1537 28.9556 20.2133 28.9091 20.2832C28.8625 20.3532 28.5937 20.6901 26.7997 23.3282C25.0057 25.9663 22.3483 31.3618 24.8376 32.2896C26.4248 32.8934 29.1055 30.0738 30.5609 28.2287C31.65 26.7787 32.6563 25.268 33.575 23.704C33.6345 23.5459 33.575 23.5096 33.4871 23.4811L33.4846 23.4733ZM72.4384 25.0982H74.1859C74.1859 25.0982 65.4304 37.7965 60.4852 37.2056C57.7244 36.8817 58.5438 33.4661 58.5438 33.4661C58.5438 33.4661 54.6663 38.0167 51.1041 37.0942C47.8728 36.2623 49.959 30.8746 49.959 30.8746C49.5919 31.0223 42.5994 38.9237 37.6852 37.0294C32.5436 35.0391 35.214 28.4231 36.1911 26.4328C37.0209 24.7561 37.9386 23.1235 37.9386 23.1235C37.9386 23.1235 37.1501 23.3464 36.6461 23.4604C36.142 23.5744 35.413 23.7195 35.413 23.7195C35.413 23.7195 32.9805 27.6819 31.4941 29.6592C30.0077 31.6365 23.6899 38.4314 19.9674 37.0786C16.245 35.7259 17.1679 30.504 19.2591 26.3577C22.6507 19.6328 30.6979 11.3685 35.5448 12.6228C40.4409 13.8745 36.3876 21.8355 36.3876 21.8355C36.3876 21.8355 37.3621 21.9625 39.6964 20.3662C43.0569 18.0675 47.4928 11.8842 52.2958 12.6099C54.5603 12.9519 56.6697 15.2713 53.7848 19.6768C52.8645 21.0918 51.3213 22.3564 50.1399 21.1047C49.4032 20.3273 50.0468 18.9097 50.8198 17.9405C51.1206 17.5454 51.5137 17.2305 51.9645 17.0236C52.4153 16.8166 52.9099 16.7239 53.4048 16.7536C53.4048 16.7536 54.1984 14.9396 52.1795 14.9655C50.5458 14.9966 46.4097 18.8139 44.0754 22.67C41.935 26.2099 38.6908 32.2403 41.948 33.5542C44.9337 34.7618 50.6156 28.0007 53.2471 24.4581C55.8787 20.9156 61.8759 12.8872 66.9064 12.5658C68.6384 12.4518 69.6698 14.0352 69.6698 14.0352L70.2514 13.1126H75.2819C75.2819 13.1126 65.8078 28.9621 65.0685 30.162C64.4868 31.1001 63.7139 33.2095 65.844 32.0278C67.974 30.8461 72.4384 25.0982 72.4384 25.0982ZM69.7008 50.4947C65.9969 47.9243 61.5616 46.6268 57.06 46.7967C55.8416 46.83 54.6482 47.1507 53.5765 47.7329C52.5049 48.3151 51.5852 49.1423 50.8922 50.1474C48.9741 46.7915 45.1818 44.7313 39.319 44.7779C29.8448 44.8867 20.4483 49.2663 13.0034 49.2612C5.86869 49.2612 0.66503 44.7649 0.833057 36.7806C1.14585 22.7685 12.9568 10.1505 21.7718 4.47262C26.854 1.20994 31.1038 0.24073 33.8827 0.554299C35.9093 0.779758 38.347 3.12764 36.8089 6.58726C34.5496 11.6432 31.4295 11.2286 31.5458 8.81075C31.6104 7.23772 32.6548 6.24778 33.4406 5.70098C33.9395 5.35631 34.821 5.25783 35.2812 5.24747C35.7284 4.86911 36.0567 2.10141 32.4376 3.01102C28.8186 3.92063 24.424 7.49687 20.2518 12.1175C16.0796 16.7381 9.58338 25.4714 7.97808 34.6426C7.22842 38.8952 7.71958 46.6515 17.7779 46.5634C26.3085 46.4935 38.8821 40.8622 50.4372 40.9788C54.9222 41.0228 58.8256 42.2357 61.8682 44.1171C64.8565 45.9622 68.4393 48.6573 69.7112 50.4973" fill="white"/>
</g>
<defs>
<clipPath id="clip0_3032_20613">
<rect width="159" height="50" fill="white" transform="translate(0.833008 0.5)"/>
</clipPath>
</defs>
</svg>
